<?xml version="1.0" encoding="UTF-8"?>
<!-- Generator: visioncortex VTracer 0.6.12 -->
<svg version="1.1" xmlns="http://www.w3.org/2000/svg" width="1206" height="411">
<path d="M0 0 C2.807 0.438 4.055 1.373 6.105 3.328 C6.477 5.656 6.477 5.656 6.328 8.363 C6.311 9.337 6.293 10.311 6.275 11.314 C6.204 13.37 6.104 15.425 5.979 17.479 C5.953 20.436 6.09 22.553 7.105 25.328 C14.512 28.957 24.448 27.222 32.451 26.628 C46.716 25.585 60.938 25.13 75.238 25.168 C75.651 25.169 75.651 25.169 77.738 25.173 C82.726 25.187 87.714 25.215 92.702 25.249 C99.5 25.294 106.298 25.322 113.096 25.345 C115.44 25.355 117.783 25.372 120.127 25.39 C121.543 25.397 122.959 25.404 124.375 25.41 C125.607 25.418 126.839 25.426 128.108 25.435 C131.105 25.328 131.105 25.328 134.105 24.328 C144.253 23.868 154.485 24.546 164.625 24.976 C166.587 25.058 168.549 25.133 170.512 25.207 C171.66 25.254 172.808 25.301 173.99 25.35 C177.105 25.328 177.105 25.328 179.488 24.836 C182.096 24.33 184.454 24.195 187.108 24.183 C188.075 24.176 189.043 24.17 190.04 24.164 C191.074 24.162 192.107 24.161 193.172 24.16 C194.243 24.157 195.314 24.153 196.417 24.15 C198.678 24.145 200.938 24.143 203.198 24.143 C206.659 24.141 210.119 24.122 213.58 24.104 C215.777 24.101 217.975 24.099 220.172 24.098 C221.207 24.09 222.243 24.083 223.31 24.076 C224.274 24.079 225.239 24.082 226.233 24.085 C227.079 24.084 227.926 24.082 228.798 24.081 C231.301 24.349 232.898 25.17 235.105 26.328 C235.435 25.998 235.765 25.668 236.105 25.328 C238.23 25.229 240.359 25.2 242.486 25.199 C242.82 25.198 242.82 25.198 244.507 25.193 C246.726 25.189 248.945 25.192 251.164 25.195 C252.708 25.195 254.252 25.194 255.796 25.192 C259.044 25.191 262.291 25.193 265.539 25.198 C269.678 25.203 273.816 25.2 277.955 25.194 C281.151 25.191 284.347 25.192 287.543 25.194 C289.067 25.195 290.591 25.194 292.115 25.192 C299.452 25.183 306.728 25.195 314.02 26.108 C317.852 26.513 321.694 26.393 325.543 26.328 C333.705 26.195 333.705 26.195 337.105 27.328 C339.271 27.456 341.44 27.53 343.609 27.574 C344.908 27.607 346.207 27.64 347.545 27.674 C349.596 27.721 351.647 27.765 353.698 27.805 C366.612 28.067 366.612 28.067 372.008 29.328 C379.237 30.985 386.723 30.763 394.105 30.891 C419.326 31.387 419.326 31.387 426.918 34.266 C435.327 37.022 443.908 37.401 452.682 38.11 C461.67 38.918 471.267 40.201 479.914 42.891 C484.381 43.782 489.041 43.28 493.574 43.168 C496.981 43.322 498.257 43.697 501.105 45.328 C503.115 45.892 505.137 46.41 507.168 46.891 C510.203 47.615 513.144 48.341 516.105 49.328 C516.704 49.411 516.704 49.411 519.73 49.828 C523.105 50.328 523.105 50.328 524.105 51.328 C527.142 51.614 530.178 51.777 533.223 51.949 C536.105 52.328 536.105 52.328 539.105 54.328 C541.234 54.566 541.234 54.566 543.668 54.641 C551.455 55.267 557.57 59.334 564.105 63.328 C565.157 63.803 566.209 64.277 567.293 64.766 C570.105 66.328 570.105 66.328 571.48 68.141 C572.751 72.589 572.637 75.343 570.418 79.453 C565.181 85.964 565.181 85.964 560.855 86.723 C559.271 86.872 557.683 86.985 556.094 87.055 C554.105 87.328 554.105 87.328 552.105 89.328 C550.23 89.926 550.23 89.926 548.105 90.391 C545.893 90.883 544.139 91.311 542.105 92.328 C540.584 92.322 539.063 92.273 537.543 92.203 C531.702 92.134 526.309 93.086 520.604 94.189 C514.739 95.294 509.029 95.786 503.059 96.02 C500.105 96.328 500.105 96.328 497.826 97.312 C494.663 98.493 491.987 98.71 488.617 98.891 C487.362 98.964 486.106 99.038 484.813 99.113 C484.156 99.148 483.5 99.183 482.823 99.219 C472.85 99.754 462.957 100.464 453.059 101.824 C439.45 103.559 425.73 104.525 412.019 104.899 C406.288 105.1 401.407 106.139 395.979 108.094 C389.056 110.429 382.403 110.885 375.131 111.181 C364.914 111.609 355.086 112.369 345.149 114.926 C340.093 116.201 335.186 116.84 329.98 117.141 C329.305 117.181 328.63 117.222 327.934 117.264 C323.189 117.466 318.769 117.146 314.105 116.328 C312.105 114.328 312.105 114.328 311.918 111.266 C312.105 108.328 312.105 108.328 313.105 107.328 C324.911 104.19 337.143 103.034 349.293 102.328 C357.103 101.873 364.568 101.277 372.168 99.391 C385.565 96.077 399.565 95.653 413.286 94.654 C424.757 93.676 424.757 93.676 426.105 92.328 C429.597 92.034 433.09 91.879 436.59 91.707 C440.106 91.472 443.528 90.96 447.004 90.387 C456.066 88.94 465.194 88.338 474.338 87.651 C476.633 87.476 478.928 87.293 481.223 87.109 C481.567 87.085 481.567 87.085 483.31 86.961 C487.794 86.597 491.801 85.595 496.105 84.328 C497.898 84.093 499.699 83.913 501.504 83.801 C502.478 83.731 503.453 83.66 504.457 83.588 C506.465 83.457 508.472 83.329 510.48 83.205 C517.977 82.656 524.37 81.196 531.105 77.828 C534.413 76.174 537.712 75.123 541.25 74.074 C543.105 73.328 543.105 73.328 544.105 71.328 C543.286 71.219 542.466 71.109 541.621 70.996 C540.543 70.838 539.466 70.679 538.355 70.516 C537.822 70.44 537.822 70.44 535.121 70.059 C531.984 69.299 530.596 68.287 528.105 66.328 C525.781 65.633 525.781 65.633 523.418 65.203 C519.192 64.415 519.192 64.415 518.105 63.328 C515.33 63.043 512.554 62.88 509.77 62.707 C507.105 62.328 507.105 62.328 504.105 60.328 C502.135 59.93 500.146 59.62 498.152 59.363 C496.975 59.203 495.799 59.042 494.586 58.877 C492.115 58.555 489.643 58.234 487.172 57.916 C480.919 57.06 475.898 55.884 470.105 53.328 C461.661 51.384 453.042 50.829 444.418 50.266 C442.101 50.112 439.785 49.955 437.469 49.793 C436.461 49.727 435.453 49.661 434.415 49.594 C432.105 49.328 432.105 49.328 431.105 48.328 C427.544 48.088 423.989 47.934 420.422 47.811 C416.107 47.62 412.032 47.164 407.797 46.297 C401.637 45.107 395.671 45.148 389.418 45.266 C364.111 45.492 364.111 45.492 353.328 42.73 C350.623 42.241 348.104 42.275 345.355 42.328 C340.781 42.406 336.382 42.199 331.848 41.677 C320.945 40.455 310.084 40.018 299.125 39.762 C298.267 39.741 297.408 39.72 296.524 39.698 C275.218 39.186 253.916 39.25 232.605 39.328 C225.984 39.352 219.363 39.372 212.742 39.384 C210.143 39.39 207.544 39.403 204.945 39.416 C203.358 39.419 201.77 39.423 200.182 39.426 C199.478 39.431 198.775 39.436 198.051 39.441 C194.657 39.442 191.356 39.277 187.996 38.829 C184.531 38.383 181.264 38.206 177.776 38.213 C176.584 38.213 175.392 38.214 174.164 38.215 C172.888 38.221 171.612 38.228 170.297 38.234 C168.93 38.238 167.563 38.242 166.195 38.245 C150.886 38.297 135.578 38.54 120.271 38.792 C114.306 38.889 108.34 38.983 102.375 39.076 C100.338 39.108 98.301 39.142 96.264 39.176 C88.913 39.292 81.573 39.329 74.221 39.238 C71.088 39.329 68.187 39.775 65.105 40.328 C63.563 40.468 62.018 40.583 60.471 40.669 C59.606 40.72 58.74 40.77 57.848 40.822 C56.926 40.873 56.005 40.924 55.055 40.977 C53.055 41.096 51.056 41.216 49.057 41.336 C45.942 41.52 42.827 41.701 39.712 41.875 C32.833 42.262 25.97 42.752 19.105 43.328 C18.238 43.39 17.371 43.452 16.478 43.516 C3.755 44.511 3.755 44.511 0.253 48.368 C-1.012 51.394 -1.488 54.071 -1.895 57.328 C-2.095 58.628 -2.295 59.928 -2.501 61.267 C-3.133 65.651 -3.583 70.046 -4.02 74.453 C-4.328 77.436 -4.644 80.417 -4.965 83.398 C-5.002 83.755 -5.002 83.755 -5.193 85.557 C-5.587 89.127 -6.096 92.577 -6.977 96.059 C-8.392 101.793 -8.319 107.638 -8.457 113.516 C-8.53 115.915 -8.604 118.315 -8.68 120.715 C-8.715 121.856 -8.75 122.997 -8.786 124.173 C-9.318 139.599 -9.318 139.599 -10.895 144.328 C-11.04 145.808 -11.141 147.292 -11.211 148.777 C-11.232 149.201 -11.232 149.201 -11.338 151.346 C-11.358 151.786 -11.358 151.786 -11.457 154.016 C-11.5 154.908 -11.543 155.801 -11.588 156.721 C-11.694 158.923 -11.796 161.125 -11.895 163.328 C-8.748 163.023 -5.602 162.708 -2.457 162.391 C-1.559 162.304 -0.661 162.217 0.264 162.127 C1.118 162.04 1.972 161.953 2.852 161.863 C3.642 161.785 4.433 161.706 5.248 161.625 C7.105 161.328 7.105 161.328 8.105 160.328 C9.743 159.974 11.391 159.671 13.043 159.391 C19.872 158.198 26.666 156.902 33.418 155.328 C38.266 154.222 43.164 153.557 48.09 152.891 C51.105 152.328 51.105 152.328 53.371 151.391 C57.495 149.788 61.766 149.133 66.105 148.328 C67.751 148.008 69.397 147.686 71.043 147.363 C72.73 147.038 74.418 146.714 76.105 146.391 C77.003 146.218 77.901 146.045 78.826 145.868 C85.67 144.566 92.529 143.395 99.42 142.367 C104.711 141.538 104.711 141.538 106.979 140.33 C109.6 139.095 111.844 138.863 114.727 138.582 C115.273 138.525 115.273 138.525 118.041 138.238 C119.196 138.123 120.352 138.009 121.543 137.891 C129.488 137.048 137.116 136.05 144.852 134.008 C149.225 133.094 153.596 132.763 158.043 132.391 C163.89 131.892 169.24 131.201 174.855 129.391 C182.267 127.005 189.764 126.235 197.493 125.455 C201.983 124.975 206.108 124.46 210.348 122.867 C216.93 120.469 223.996 120.044 230.918 119.266 C233.028 119.026 235.138 118.784 237.247 118.532 C239.146 118.305 241.047 118.09 242.948 117.875 C245.82 117.378 247.573 116.656 250.105 115.328 C252.18 115.025 252.18 115.025 254.363 114.949 C255.153 114.915 255.944 114.881 256.758 114.846 C257.166 114.832 257.166 114.832 259.23 114.766 C267.866 114.448 267.866 114.448 270.105 113.328 C271.795 113.051 273.492 112.818 275.191 112.609 C276.205 112.482 277.218 112.354 278.262 112.223 C279.324 112.092 280.386 111.962 281.48 111.828 C283.572 111.57 285.663 111.31 287.754 111.047 C288.684 110.933 289.614 110.819 290.572 110.701 C292.808 110.372 294.919 109.887 297.105 109.328 C298.811 109.214 300.521 109.153 302.23 109.141 C303.099 109.126 303.968 109.112 304.863 109.098 C307.105 109.328 307.105 109.328 309.105 111.328 C309.605 114.328 309.605 114.328 309.105 117.328 C303.799 119.716 297.807 120.453 292.105 121.453 C291.083 121.633 290.061 121.814 289.008 122 C282.152 123.145 275.78 123.576 268.832 123.344 C265.304 123.324 262.441 124.216 259.105 125.328 C257.296 125.659 255.481 125.962 253.664 126.246 C247.341 127.27 241.07 128.49 234.793 129.766 C231.673 130.395 228.552 131.025 225.432 131.652 C223.129 132.12 220.828 132.598 218.529 133.084 C209.465 134.971 200.417 136.298 191.23 137.391 C176.18 139.192 176.18 139.192 169.421 140.822 C163.051 142.215 156.533 142.971 150.084 143.916 C148.958 144.084 147.832 144.252 146.672 144.426 C145.65 144.575 144.629 144.725 143.576 144.879 C141.105 145.328 141.105 145.328 139.105 146.328 C136.97 146.602 134.834 146.773 132.688 146.949 C130.105 147.328 130.105 147.328 126.879 148.336 C121.747 149.685 116.795 149.717 111.514 149.807 C106.838 149.968 104.837 150.436 101.105 153.328 C98.121 154.091 95.093 154.481 92.043 154.891 C90.426 155.114 88.81 155.345 87.195 155.582 C86.482 155.678 85.769 155.774 85.035 155.873 C83.105 156.328 83.105 156.328 80.105 158.328 C77.855 158.82 77.855 158.82 75.105 159.203 C70.798 159.863 66.554 160.644 62.3 161.59 C55.033 163.206 47.748 164.583 40.402 165.781 C39.623 165.909 38.844 166.036 38.042 166.167 C34.117 166.805 30.191 167.432 26.262 168.046 C17.776 169.395 9.557 171.109 1.288 173.455 C-1.555 174.235 -4.376 174.837 -7.27 175.391 C-9.352 176.113 -9.352 176.113 -10.895 177.328 C-12.138 180.995 -12.007 184.49 -11.895 188.328 C-11.916 189.35 -11.938 190.373 -11.961 191.426 C-12.109 198.9 -12.109 198.9 -10.895 201.328 C-8.125 201.532 -5.476 201.606 -2.707 201.578 C-1.951 201.586 -1.195 201.594 -0.416 201.602 C4.196 201.586 7.734 200.911 12.105 199.328 C14.515 198.926 16.932 198.572 19.355 198.266 C25.902 197.43 25.902 197.43 28.105 196.328 C29.605 196.328 31.105 196.328 32.605 196.328 C37.401 195.91 39.5 194.48 42.918 191.141 C50.172 184.057 57.989 180.05 68.23 179.703 C74.76 179.994 80.177 181.687 86.105 184.328 C86.538 184.496 86.538 184.496 88.727 185.348 C94.141 187.579 98.12 191.121 102.105 195.328 C104.105 197.328 104.105 197.328 107.033 197.571 C108.314 197.567 109.594 197.563 110.914 197.559 C111.637 197.558 112.361 197.558 113.106 197.558 C115.585 197.554 118.064 197.535 120.543 197.516 C122.344 197.509 124.145 197.504 125.947 197.498 C137.579 197.448 149.209 197.27 160.84 197.062 C165.772 196.975 170.704 196.889 175.637 196.803 C177.076 196.778 178.515 196.753 179.954 196.728 C205.878 196.275 231.74 196.481 257.662 197.151 C263.878 197.303 270.086 197.342 276.305 197.309 C285.678 197.267 295.014 197.597 304.375 198.073 C307.028 198.206 309.682 198.324 312.336 198.441 C314.048 198.525 315.76 198.61 317.473 198.695 C318.254 198.729 319.035 198.762 319.84 198.797 C324.267 199.037 327.91 199.775 332.105 201.328 C334.765 201.738 337.37 202.07 340.043 202.328 C340.831 202.409 341.62 202.491 342.432 202.574 C347.983 203.114 353.539 203.496 359.105 203.828 C359.799 203.87 360.493 203.912 361.208 203.955 C364.703 204.165 368.197 204.363 371.693 204.543 C372.983 204.616 374.273 204.69 375.602 204.766 C376.758 204.826 377.915 204.887 379.107 204.949 C381.989 205.313 383.595 205.975 386.105 207.328 C388.113 207.691 388.113 207.691 390.23 207.855 C391.014 207.924 391.798 207.992 392.606 208.062 C393.431 208.13 394.256 208.197 395.105 208.266 C414.884 210.106 414.884 210.106 419.105 214.328 C422.578 215.035 426.04 215.582 429.545 216.096 C433.197 216.675 436.424 217.346 439.797 218.891 C443.051 220.304 445.347 220.737 448.855 220.891 C452.645 221.065 453.85 221.158 457.105 223.328 C458.759 223.824 460.415 224.315 462.082 224.766 C468.231 226.475 474.393 228.472 480.105 231.328 C480.435 232.318 480.765 233.308 481.105 234.328 C483.555 234.594 483.555 234.594 486.793 234.578 C495.167 234.995 504.067 238.29 510.105 244.328 C511.485 244.814 512.885 245.245 514.293 245.641 C518.227 246.887 520.986 248.488 524.215 251.008 C526.467 252.581 528.803 253.671 531.293 254.828 C535.32 256.796 537.735 258.407 540.105 262.328 C540.474 262.915 540.843 263.501 541.223 264.105 C544.083 269.087 545.171 273.62 544.105 279.328 C542.1 283.131 540.679 284.946 537.105 287.328 C533.668 287.641 533.668 287.641 530.105 287.328 C529.556 286.838 529.007 286.348 528.441 285.844 C524.876 283.531 521.334 283.836 517.168 283.766 C511.997 283.653 507.883 283.504 503.105 281.328 C501 281.02 501 281.02 498.918 280.891 C495.475 280.577 492.455 279.898 489.168 278.828 C484.781 277.412 480.63 276.84 476.039 276.539 C474.105 276.328 474.105 276.328 473.105 275.328 C471.316 275.19 469.523 275.095 467.73 275.016 C461.033 274.559 454.68 273.29 448.133 271.845 C442.474 270.6 436.828 269.581 431.09 268.766 C428.017 268.315 424.973 267.761 421.918 267.203 C417.24 266.402 412.805 266.179 408.066 266.355 C406.105 266.328 406.105 266.328 404.105 265.328 C402.462 265.131 400.811 264.984 399.16 264.863 C398.165 264.785 397.17 264.707 396.145 264.627 C394.059 264.471 391.973 264.317 389.887 264.166 C381.277 263.485 381.277 263.485 377.09 262.293 C371.963 260.872 366.769 260.948 361.48 260.828 C354.975 260.625 348.597 260.417 342.168 259.328 C332.65 257.767 322.993 257.749 313.371 257.437 C308.115 257.262 302.86 257.051 297.605 256.828 C297.134 256.81 297.134 256.81 294.746 256.72 C293.885 256.684 293.024 256.647 292.137 256.609 C291.379 256.579 290.622 256.549 289.842 256.518 C288.105 256.328 288.105 256.328 287.105 255.328 C284.945 255.192 282.781 255.124 280.617 255.082 C279.212 255.05 277.806 255.018 276.4 254.986 C275.65 254.97 274.901 254.955 274.128 254.939 C263.544 254.719 252.971 254.429 242.402 253.785 C241.614 253.738 240.826 253.69 240.014 253.641 C236.246 253.41 232.481 253.164 228.716 252.901 C217.542 252.164 206.129 251.965 195.051 253.847 C191.57 254.416 188.19 254.545 184.664 254.645 C184.308 254.655 184.308 254.655 182.504 254.708 C180.184 254.774 177.864 254.833 175.543 254.891 C174.751 254.911 173.958 254.932 173.142 254.954 C161.984 255.245 150.83 255.429 139.668 255.453 C138.468 255.458 137.268 255.462 136.031 255.467 C135.477 255.466 135.477 255.466 132.672 255.461 C131.712 255.46 130.753 255.459 129.764 255.458 C127.118 255.329 124.685 254.917 122.105 254.328 C121.775 255.318 121.445 256.308 121.105 257.328 C119.252 257.713 119.252 257.713 116.801 257.729 C115.887 257.742 114.972 257.755 114.03 257.769 C113.035 257.769 112.041 257.769 111.016 257.77 C110.001 257.783 108.986 257.796 107.94 257.81 C104.683 257.851 101.426 257.872 98.168 257.891 C94.914 257.914 91.66 257.942 88.406 257.982 C86.378 258.007 84.349 258.022 82.32 258.026 C81.402 258.036 80.485 258.046 79.539 258.057 C78.73 258.061 77.92 258.065 77.086 258.07 C75.105 258.328 75.105 258.328 73.105 260.328 C71.11 261.008 69.109 261.673 67.105 262.328 C61.427 265.007 61.427 265.007 60.105 266.328 C51.938 267.805 43.241 267.989 35.105 266.328 C34.445 265.668 33.785 265.008 33.105 264.328 C28.252 264.441 25.541 266.214 21.844 269.059 C19.431 270.821 16.784 272.02 14.105 273.328 C13.445 273.988 12.785 274.648 12.105 275.328 C9.783 276.033 7.45 276.7 5.105 277.328 C4.775 277.493 4.775 277.493 3.105 278.328 C0.511 278.427 -2.051 278.467 -4.645 278.453 C-5.348 278.457 -6.052 278.461 -6.777 278.465 C-10.078 278.459 -12.948 278.317 -16.199 277.637 C-18.895 277.328 -18.895 277.328 -20.73 278.543 C-21.238 279.111 -21.746 279.68 -22.27 280.266 C-25.028 282.849 -25.777 283.307 -29.707 284.016 C-34.858 283.602 -39.712 281.282 -43.895 278.328 C-44.217 277.632 -44.539 276.936 -44.871 276.219 C-45.895 274.328 -45.895 274.328 -48.359 273.312 C-49.196 273.318 -50.033 273.323 -50.895 273.328 C-52.336 275.094 -52.336 275.094 -53.457 277.578 C-55.114 281.178 -56.463 283.253 -59.895 285.328 C-60.781 285.411 -61.668 285.493 -62.582 285.578 C-63.345 285.826 -64.108 286.073 -64.895 286.328 C-65.253 288.658 -65.583 290.992 -65.895 293.328 C-68.332 296.016 -68.332 296.016 -70.895 298.328 C-71.194 299 -71.493 299.671 -71.801 300.363 C-73.557 303.518 -76.049 303.811 -79.371 304.789 C-83.159 305.598 -87.073 306.152 -90.895 305.328 C-91.555 304.338 -92.215 303.348 -92.895 302.328 C-93.214 302.194 -93.214 302.194 -94.832 301.516 C-98.114 299.626 -98.673 297.931 -99.895 294.328 C-100.052 290.888 -100.019 287.5 -99.902 284.059 C-99.901 283.608 -99.901 283.608 -99.895 281.328 C-100.895 280.328 -100.895 280.328 -104.793 280.211 C-110.063 280.271 -115.276 280.697 -120.52 281.203 C-121.422 281.282 -122.324 281.36 -123.254 281.441 C-128.355 281.925 -132.988 282.768 -137.895 284.328 C-146.525 286.472 -155.031 287.459 -163.906 287.949 C-166.795 288.315 -168.381 288.963 -170.895 290.328 C-172.446 290.727 -174.01 291.081 -175.582 291.391 C-179.79 292.224 -179.79 292.224 -180.895 293.328 C-182.735 293.591 -184.583 293.796 -186.434 293.977 C-187.572 294.095 -188.71 294.214 -189.883 294.336 C-192.283 294.578 -194.684 294.815 -197.086 295.047 C-203.326 295.707 -208.259 296.605 -213.895 299.328 C-216.816 299.953 -216.816 299.953 -219.645 300.328 C-226.588 301.367 -233.238 303.109 -239.895 305.328 C-244.067 305.943 -248.265 306.368 -252.457 306.828 C-253.673 306.964 -254.888 307.1 -256.14 307.24 C-263.081 307.993 -269.982 308.56 -276.957 308.828 C-282.493 309.046 -287.351 309.762 -292.582 311.633 C-296.184 312.716 -299.807 312.891 -303.547 313.117 C-305.895 313.328 -305.895 313.328 -308.895 314.328 C-311.889 314.54 -314.869 314.704 -317.867 314.828 C-318.746 314.869 -319.625 314.909 -320.53 314.951 C-324.293 315.125 -328.056 315.289 -331.819 315.453 C-334.564 315.574 -337.309 315.701 -340.055 315.828 C-340.91 315.864 -341.765 315.899 -342.646 315.936 C-348.669 316.215 -348.669 316.215 -350.895 317.328 C-353.035 317.54 -355.181 317.697 -357.328 317.828 C-358.617 317.911 -359.905 317.993 -361.232 318.078 C-362.599 318.162 -363.965 318.245 -365.332 318.328 C-367.998 318.49 -370.663 318.658 -373.328 318.828 C-374.515 318.9 -375.701 318.973 -376.924 319.047 C-379.895 319.328 -379.895 319.328 -382.895 320.328 C-385.721 320.438 -388.521 320.492 -391.348 320.496 C-392.192 320.5 -393.037 320.504 -393.907 320.509 C-396.653 320.518 -399.399 320.518 -402.145 320.516 C-402.609 320.516 -402.609 320.516 -404.957 320.516 C-415.859 320.506 -426.715 320.416 -437.582 319.453 C-438.469 319.375 -439.355 319.296 -440.269 319.216 C-444.753 318.75 -448.622 317.822 -452.895 316.328 C-454.89 316.042 -456.89 315.793 -458.895 315.578 C-466.543 314.487 -476.302 311.921 -481.895 306.328 C-487.249 304.907 -490.431 305.7 -495.395 307.578 C-498.191 308.417 -500.669 308.579 -503.582 308.703 C-509.75 309.065 -514.822 310.98 -520.551 313.191 C-524.363 314.487 -527.804 314.96 -531.809 315.09 C-533.895 315.328 -533.895 315.328 -535.64 316.281 C-538.447 317.585 -540.984 317.92 -544.051 318.328 C-545.238 318.493 -546.425 318.658 -547.648 318.828 C-550.146 319.161 -552.643 319.495 -555.141 319.828 C-556.328 319.993 -557.515 320.158 -558.738 320.328 C-559.823 320.473 -560.908 320.617 -562.025 320.766 C-564.7 321.29 -566.531 322.027 -568.895 323.328 C-575.831 325.293 -582.777 326.623 -589.969 327.117 C-591.895 327.328 -591.895 327.328 -593.895 328.328 C-596.247 328.425 -598.603 328.458 -600.957 328.453 C-602.227 328.456 -603.496 328.458 -604.805 328.461 C-607.895 328.328 -607.895 328.328 -608.895 327.328 C-609.082 324.391 -609.082 324.391 -608.895 321.328 C-606.012 318.446 -603.347 318.952 -599.402 318.77 C-596.453 318.25 -595.22 317.165 -592.895 315.328 C-580.792 310.26 -567.234 307.424 -554.273 305.723 C-551.895 305.328 -551.895 305.328 -550.895 304.328 C-549.196 303.968 -547.484 303.667 -545.77 303.391 C-544.682 303.214 -543.594 303.037 -542.473 302.855 C-538.828 302.318 -535.178 301.886 -531.52 301.453 C-525.148 300.631 -519.212 299.149 -513.074 297.277 C-510.274 296.441 -507.501 295.748 -504.645 295.141 C-500.895 294.328 -500.895 294.328 -498.895 293.328 C-500.02 291.06 -501.166 288.806 -502.332 286.559 C-505.092 281.184 -507.458 276.192 -508.895 270.328 C-509.234 269.553 -509.573 268.778 -509.923 267.98 C-511.646 263.277 -511.222 258.41 -511.207 253.453 C-511.223 252.39 -511.239 251.326 -511.256 250.23 C-511.26 244.055 -510.676 239.827 -507.895 234.328 C-507.41 231.957 -507.41 231.957 -507.145 229.891 C-506.206 225.189 -503.939 222.543 -500.648 219.152 C-498.895 217.328 -498.895 217.328 -497.367 215.117 C-495.895 213.328 -495.895 213.328 -492.77 213.016 C-489.895 213.328 -489.895 213.328 -488.895 214.328 C-488.457 217.641 -488.457 217.641 -488.895 221.328 C-489.802 221.885 -490.71 222.442 -491.645 223.016 C-496.111 226.194 -496.661 229.609 -498.133 234.746 C-498.895 237.328 -498.895 237.328 -499.895 238.328 C-500.335 242.251 -500.458 246.199 -500.645 250.141 C-500.713 251.247 -500.781 252.354 -500.852 253.494 C-500.902 254.56 -500.952 255.625 -501.004 256.723 C-501.03 257.212 -501.03 257.212 -501.159 259.687 C-500.848 262.797 -499.907 263.998 -497.895 266.328 C-497.191 268.406 -497.191 268.406 -496.645 270.578 C-494.969 275.959 -491.813 279.393 -487.895 283.328 C-487.269 284.065 -486.644 284.803 -486 285.562 C-483.895 287.328 -483.895 287.328 -481.441 287.605 C-478.251 287.218 -475.073 286.806 -471.895 286.328 C-471.566 286.287 -471.566 286.287 -469.902 286.082 C-460.88 284.96 -454.002 283.579 -447.895 276.328 C-447.33 275.672 -446.765 275.016 -446.184 274.34 C-445.034 273 -443.889 271.657 -442.75 270.309 C-440.091 267.471 -437.075 265.239 -433.961 262.926 C-431.895 261.328 -431.895 261.328 -429.207 258.578 C-425.433 254.906 -422.346 253.423 -417.082 253.078 C-413.895 253.328 -413.895 253.328 -412.895 254.328 C-412.395 256.453 -412.395 256.453 -412.895 259.328 C-416.901 264.64 -422.627 268.609 -427.855 272.629 C-429.895 274.328 -429.895 274.328 -430.895 276.328 C-430.326 276.162 -429.758 275.996 -429.173 275.825 C-419.352 272.963 -409.57 270.167 -399.578 267.965 C-396.504 267.235 -393.583 266.261 -390.605 265.215 C-386.715 263.942 -382.777 262.858 -378.832 261.766 C-378.454 261.661 -378.454 261.661 -376.54 261.129 C-372.883 260.122 -369.223 259.159 -365.535 258.27 C-361.895 257.328 -361.895 257.328 -358.707 255.828 C-355.421 254.319 -352.286 253.905 -348.707 253.453 C-342.845 252.66 -338.104 250.91 -332.738 248.488 C-329.269 247.073 -325.912 246.469 -322.234 245.848 C-319.848 245.318 -317.96 244.526 -315.77 243.453 C-310.861 241.092 -305.763 239.929 -300.478 238.723 C-295.251 237.513 -295.251 237.513 -292.797 236.242 C-289.306 234.565 -285.389 234.858 -281.574 234.672 C-278.895 234.328 -278.895 234.328 -276.895 232.328 C-273.65 231.27 -270.406 230.447 -267.082 229.676 C-262.267 228.54 -257.746 227.401 -253.27 225.266 C-249.346 223.396 -245.614 222.566 -241.348 221.82 C-239.006 221.351 -236.889 220.697 -234.645 219.891 C-229.581 218.1 -224.391 217.109 -219.129 216.074 C-216.19 215.396 -213.607 214.64 -210.895 213.328 C-210.565 212.668 -210.235 212.008 -209.895 211.328 C-210.493 211.287 -211.091 211.246 -211.707 211.203 C-213.895 210.328 -213.895 210.328 -215.27 207.516 C-217.21 203.709 -219.3 202.516 -222.895 200.328 C-223.225 199.668 -223.555 199.008 -223.895 198.328 C-225.92 198.071 -227.948 197.82 -229.984 197.672 C-231.895 197.328 -231.895 197.328 -233.895 195.328 C-234.72 195.019 -235.545 194.709 -236.395 194.391 C-238.895 193.328 -238.895 193.328 -240.895 190.328 C-244.054 188.605 -246.808 188.235 -250.332 188.016 C-254.15 187.688 -254.823 187.388 -257.957 184.766 C-261.342 181.957 -262.649 182.167 -266.891 182.48 C-270.032 182.242 -271.727 180.437 -274.098 178.496 C-276.2 177.129 -277.662 176.907 -280.145 176.703 C-284.16 176.302 -284.435 176.123 -286.895 173.328 C-287.946 172.977 -288.998 172.627 -290.082 172.266 C-291.01 171.956 -291.938 171.647 -292.895 171.328 C-292.895 170.668 -292.895 170.008 -292.895 169.328 C-293.515 169.375 -294.135 169.421 -294.773 169.469 C-301.359 169.737 -306.941 168.724 -313.265 166.894 C-317.213 165.756 -321.083 164.882 -325.145 164.266 C-340.253 161.97 -340.253 161.97 -342.895 159.328 C-346.224 159.043 -349.554 158.879 -352.891 158.707 C-355.895 158.328 -355.895 158.328 -357.895 156.328 C-360.396 155.58 -362.857 154.924 -365.395 154.328 C-366.116 154.153 -366.837 153.978 -367.58 153.797 C-372.31 152.662 -377.058 151.676 -381.836 150.758 C-384.628 150.175 -387.255 149.411 -389.895 148.328 C-390.225 147.668 -390.555 147.008 -390.895 146.328 C-393.914 145.44 -396.294 145.349 -399.457 145.516 C-403.679 145.285 -404.065 144.246 -406.895 141.328 C-408.008 141.184 -409.122 141.039 -410.27 140.891 C-413.803 140.342 -416.117 139.624 -418.793 137.184 C-421.233 133.074 -420.677 127.889 -419.895 123.328 C-416.789 117.126 -412.254 113.784 -405.895 111.328 C-399.985 108.553 -394.241 105.608 -388.707 102.141 C-384.894 99.785 -381.297 98.368 -377.02 97.098 C-374.81 96.298 -373.193 95.292 -371.27 93.953 C-366.989 91.097 -362.335 89.674 -357.474 88.14 C-353.134 86.766 -349.023 85.193 -344.922 83.223 C-342.895 82.328 -342.895 82.328 -340.082 81.438 C-335.271 79.763 -330.918 77.278 -326.43 74.887 C-322.801 73.287 -319.804 72.825 -315.895 72.328 C-313.826 71.588 -311.781 70.776 -309.77 69.891 C-308.777 69.459 -307.784 69.027 -306.762 68.582 C-304.985 67.805 -303.211 67.022 -301.441 66.23 C-297.354 64.782 -293.141 64.44 -288.855 63.891 C-285.895 63.328 -285.895 63.328 -282.895 61.328 C-281.719 61.163 -280.543 60.998 -279.332 60.828 C-275.895 60.328 -275.895 60.328 -273.895 58.328 C-271.2 57.769 -268.549 57.301 -265.832 56.891 C-260.316 55.995 -255.166 54.923 -249.898 53.023 C-234.695 47.748 -216.114 49.427 -201.02 54.141 C-193.557 56.152 -183.841 54.923 -176.942 51.303 C-174.743 50.256 -173.088 49.971 -170.672 49.766 C-170.279 49.728 -170.279 49.728 -168.291 49.539 C-166.648 49.398 -165.005 49.257 -163.361 49.117 C-162.577 49.042 -161.793 48.968 -160.984 48.891 C-160.271 48.83 -159.559 48.769 -158.824 48.707 C-156.895 48.328 -156.895 48.328 -153.895 46.328 C-146.738 44.413 -139.18 43.833 -131.822 43.113 C-127.822 42.691 -124.598 41.823 -120.895 40.328 C-118.449 40.238 -118.449 40.238 -115.77 40.391 C-108.573 40.523 -101.766 39.312 -94.699 38.117 C-90.398 37.392 -86.102 36.834 -81.77 36.328 C-76.239 35.671 -70.805 34.793 -65.332 33.766 C-56.093 32.058 -46.883 31.48 -37.496 31.191 C-20.129 30.563 -20.129 30.563 -13.895 24.328 C-13.217 21.998 -12.55 19.665 -11.895 17.328 C-11.235 16.338 -10.575 15.348 -9.895 14.328 C-9.317 12.134 -8.802 9.923 -8.332 7.703 C-6.745 0.253 -6.745 0.253 0 0 Z M-48.549 45.848 C-52.493 46.354 -56.441 46.82 -60.391 47.281 C-61.187 47.375 -61.984 47.468 -62.805 47.564 C-71.846 48.596 -80.91 49.139 -90 49.556 C-98.024 49.983 -106.593 50.677 -113.895 54.328 C-115.378 54.523 -116.868 54.672 -118.359 54.793 C-119.242 54.871 -120.124 54.949 -121.033 55.029 C-122.895 55.186 -124.757 55.34 -126.619 55.49 C-127.503 55.57 -128.386 55.649 -129.297 55.73 C-130.106 55.797 -130.916 55.864 -131.75 55.933 C-133.895 56.328 -133.895 56.328 -136.895 58.328 C-143.246 60.847 -149.435 61.724 -156.23 62.02 C-158.954 62.335 -160.49 63.09 -162.895 64.328 C-165.227 64.672 -165.227 64.672 -167.707 64.828 C-170.863 65.082 -173.335 65.462 -176.395 66.391 C-180.319 67.442 -183.63 67.403 -187.66 67.203 C-189.895 67.328 -189.895 67.328 -192.895 69.328 C-194.779 69.688 -196.678 69.969 -198.582 70.203 C-205.245 71.135 -211.583 72.688 -218.07 74.426 C-221.895 75.328 -221.895 75.328 -225.875 75.699 C-228.944 76.026 -231.086 76.811 -233.789 78.293 C-238.259 80.712 -242.581 81.302 -247.582 81.891 C-253.142 82.561 -257.146 83.176 -261.895 86.328 C-263.67 86.847 -265.464 87.305 -267.27 87.703 C-272.473 89.02 -275.768 90.935 -279.895 94.328 C-278.26 96.037 -277.025 97.263 -274.895 98.328 C-274.707 101.828 -274.707 101.828 -274.895 105.328 C-276.767 107.201 -279.831 106.502 -282.332 106.516 C-282.919 106.523 -282.919 106.523 -285.891 106.559 C-288.895 106.328 -288.895 106.328 -290.895 104.328 C-293.405 103.243 -295.855 102.339 -298.492 101.609 C-300.895 100.328 -300.895 100.328 -301.777 97.797 C-301.817 97.307 -301.817 97.307 -302.02 94.828 C-302.125 93.848 -302.231 92.869 -302.34 91.859 C-302.193 91.024 -302.046 90.189 -301.895 89.328 C-299.508 88.078 -299.508 88.078 -296.895 87.328 C-296.255 86.833 -295.616 86.338 -294.957 85.828 C-292.895 84.328 -292.895 84.328 -289.957 83.453 C-286.265 82.097 -284.423 80.303 -281.895 77.328 C-281.895 76.668 -281.895 76.008 -281.895 75.328 C-290.196 76.218 -297.239 77.911 -304.895 81.328 C-306.224 81.837 -307.558 82.337 -308.895 82.828 C-311.435 83.766 -313.901 84.76 -316.395 85.828 C-321.661 88.085 -326.683 90.152 -332.332 91.203 C-335.652 91.885 -338.119 92.894 -341.02 94.641 C-344.954 96.99 -348.98 98.459 -353.332 99.828 C-362.162 102.627 -369.885 106.724 -377.918 111.266 C-380.177 112.48 -382.511 113.389 -384.895 114.328 C-385.225 114.658 -385.225 114.658 -386.895 116.328 C-388.487 117.006 -390.081 117.681 -391.68 118.344 C-394.436 119.569 -397.099 120.925 -399.77 122.328 C-400.716 122.823 -401.662 123.318 -402.637 123.828 C-404.895 125.328 -404.895 125.328 -405.895 128.328 C-404.02 129.703 -404.02 129.703 -400.895 131.328 C-399.309 132.199 -397.726 133.074 -396.145 133.953 C-395.366 134.379 -394.587 134.804 -393.785 135.242 C-391.895 136.328 -391.895 136.328 -390.895 137.328 C-389.002 137.491 -387.105 137.607 -385.207 137.703 C-366.195 139.028 -366.195 139.028 -361.895 143.328 C-359.547 143.707 -359.547 143.707 -356.832 143.891 C-351.992 144.231 -351.992 144.231 -350.895 145.328 C-347.702 145.872 -344.498 146.294 -341.289 146.73 C-337.895 147.328 -337.895 147.328 -335 148.305 C-330.481 149.794 -325.869 150.398 -321.172 151.096 C-316.548 151.844 -313.085 153.148 -308.895 155.328 C-306.703 155.914 -304.492 156.435 -302.27 156.891 C-296.292 158.124 -296.292 158.124 -293.805 159.402 C-291.421 160.558 -289.597 160.53 -286.957 160.578 C-280.899 161.015 -276.29 163.172 -270.895 165.844 C-267.306 167.619 -263.656 168.977 -259.895 170.328 C-254.207 172.408 -249.5 174.281 -244.895 178.328 C-243.905 178.658 -242.915 178.988 -241.895 179.328 C-241.688 179.72 -241.688 179.72 -240.645 181.703 C-237.262 186.777 -230.424 187.872 -224.812 189.582 C-222.895 190.328 -222.895 190.328 -220.895 192.328 C-220.482 192.4 -220.482 192.4 -218.395 192.766 C-215.895 193.328 -215.895 193.328 -213.895 196.328 C-212.125 197.32 -212.125 197.32 -210.082 198.203 C-206.243 200.009 -203.863 202.282 -200.895 205.328 C-196.753 207.883 -193.762 208.869 -188.895 208.328 C-187.905 207.668 -186.915 207.008 -185.895 206.328 C-183.363 206.055 -183.363 206.055 -180.395 205.953 C-173.448 205.489 -167.117 203.658 -161.004 200.285 C-158.117 198.975 -155.262 198.522 -152.145 197.953 C-145.88 196.772 -139.721 195.329 -133.548 193.743 C-129.027 192.589 -124.501 191.626 -119.918 190.758 C-117.895 190.328 -117.895 190.328 -114.895 189.328 C-111.524 188.205 -108.184 187.566 -104.699 186.898 C-91.782 184.272 -91.782 184.272 -87.895 182.328 C-86.54 182.309 -85.185 182.334 -83.832 182.391 C-83.182 182.38 -83.182 182.38 -79.895 182.328 C-79.565 181.668 -79.235 181.008 -78.895 180.328 C-76.707 179.617 -76.707 179.617 -73.895 178.953 C-70.196 177.983 -66.579 176.98 -63.02 175.578 C-62.681 175.447 -62.681 175.447 -60.965 174.781 C-55.139 170.692 -52.835 164.264 -50.832 157.703 C-50.582 156.919 -50.331 156.135 -50.073 155.327 C-49.333 152.998 -48.611 150.665 -47.895 148.328 C-47.689 147.662 -47.484 146.997 -47.272 146.311 C-46.421 143.553 -45.578 140.793 -44.754 138.027 C-43.895 135.328 -43.895 135.328 -42.91 132.973 C-41.834 130.17 -41.114 127.346 -40.413 124.43 C-39.575 121.031 -38.578 117.683 -37.582 114.328 C-37.368 113.603 -37.153 112.879 -36.932 112.132 C-35.389 106.938 -33.813 101.754 -32.207 96.578 C-32.106 96.251 -32.106 96.251 -31.594 94.594 C-30.766 91.946 -29.913 89.37 -28.805 86.824 C-27.632 83.607 -27.365 80.544 -27.02 77.141 C-26.377 71.516 -25.19 66.623 -22.797 61.477 C-21.138 57.527 -20.769 53.767 -20.832 49.516 C-20.853 48.12 -20.874 46.724 -20.895 45.328 C-30.334 44.142 -39.177 44.643 -48.549 45.848 Z M-26.895 125.328 C-27.635 127.302 -28.282 129.311 -28.895 131.328 C-29.359 132.532 -29.823 133.736 -30.301 134.977 C-31.973 139.399 -33.237 143.889 -34.457 148.453 C-36.684 156.714 -36.684 156.714 -38.039 160.672 C-39.007 163.677 -39.044 166.191 -38.895 169.328 C-37.434 169.046 -35.976 168.752 -34.52 168.453 C-34.113 168.372 -34.113 168.372 -32.059 167.961 C-29.895 167.328 -29.895 167.328 -27.895 165.328 C-27.392 163.044 -27.392 163.044 -27.043 160.191 C-26.914 159.145 -26.785 158.099 -26.652 157.021 C-26.526 155.906 -26.399 154.79 -26.27 153.641 C-26.138 152.514 -26.006 151.388 -25.87 150.227 C-24.944 141.879 -24.526 133.72 -24.895 125.328 C-25.555 125.328 -26.215 125.328 -26.895 125.328 Z M-44.895 185.328 C-47.4 188.761 -49.127 192.475 -50.895 196.328 C-51.423 197.452 -51.952 198.576 -52.496 199.734 C-53.51 201.912 -54.513 204.095 -55.5 206.285 C-56.474 208.41 -57.502 210.511 -58.57 212.59 C-59.895 215.328 -59.895 215.328 -59.895 217.328 C-54.106 217.535 -49.465 216.92 -43.895 215.328 C-44.225 214.338 -44.555 213.348 -44.895 212.328 C-45.276 209.27 -45.392 206.377 -44.895 203.328 C-42.957 201.703 -42.957 201.703 -39.895 201.328 C-37.593 201.57 -35.349 201.887 -33.078 202.332 C-30.895 202.328 -30.895 202.328 -28.602 201.367 C-26.375 198.708 -26.624 196.741 -26.898 193.377 C-26.98 192.639 -27.061 191.901 -27.145 191.141 C-27.21 190.391 -27.276 189.641 -27.344 188.869 C-27.509 187.02 -27.699 185.174 -27.895 183.328 C-40.185 182.883 -40.185 182.883 -44.895 185.328 Z M-89.895 193.328 C-92.175 193.732 -94.47 194.056 -96.77 194.328 C-101.213 194.856 -104.77 195.667 -108.895 197.328 C-110.609 197.814 -112.332 198.269 -114.062 198.695 C-115.039 198.942 -116.015 199.188 -117.021 199.441 C-119.042 199.944 -121.062 200.444 -123.084 200.941 C-129.505 202.567 -135.975 204.287 -141.895 207.328 C-142.225 207.988 -142.555 208.648 -142.895 209.328 C-142.276 209.947 -141.657 210.566 -141.02 211.203 C-138.895 213.328 -138.895 213.328 -138.566 215.453 C-138.345 216.072 -138.123 216.691 -137.895 217.328 C-135.715 217.648 -135.715 217.648 -133.02 217.453 C-128.193 217.129 -128.193 217.129 -124.895 219.328 C-124.41 221.711 -124.41 221.711 -124.145 224.453 C-123.691 227.168 -123.691 227.168 -122.895 229.328 C-119.28 230.038 -117.201 229.981 -113.895 228.328 C-110.33 227.889 -106.766 227.511 -103.191 227.166 C-99.258 226.747 -96.412 226.195 -92.895 224.328 C-90.833 224.074 -88.77 223.825 -86.707 223.578 C-81.577 222.455 -79.021 221.007 -76.022 216.62 C-74.178 213.587 -72.513 210.486 -70.895 207.328 C-70.358 206.372 -69.822 205.415 -69.27 204.43 C-66.724 199.729 -65.123 195.693 -64.895 190.328 C-65.895 189.328 -65.895 189.328 -69.145 189.141 C-76.017 189.228 -84.105 189.468 -89.895 193.328 Z M71.105 189.328 C70.775 190.318 70.445 191.308 70.105 192.328 C73.405 192.328 76.705 192.328 80.105 192.328 C80.105 191.668 80.105 191.008 80.105 190.328 C78.629 190.081 77.149 189.856 75.668 189.641 C74.844 189.513 74.021 189.385 73.172 189.254 C72.49 189.278 71.808 189.303 71.105 189.328 Z M171.918 210.328 C161.309 213.29 150.338 212.595 139.427 212.355 C124.337 212.05 124.337 212.05 118.105 214.328 C118.105 215.648 118.105 216.968 118.105 218.328 C124.295 222.77 134.47 221.367 141.719 221.301 C145.795 221.334 149.849 221.529 153.918 221.766 C154.623 221.805 155.329 221.844 156.055 221.885 C159.16 222.075 162.2 222.343 165.272 222.837 C169.684 223.402 173.976 223.488 178.418 223.502 C178.871 223.505 178.871 223.505 181.165 223.522 C183.124 223.536 185.082 223.548 187.04 223.558 C190.143 223.574 193.245 223.598 196.348 223.623 C205.165 223.693 213.983 223.754 222.801 223.805 C228.204 223.837 233.606 223.878 239.009 223.925 C241.063 223.941 243.117 223.953 245.171 223.962 C248.045 223.974 250.919 223.998 253.793 224.025 C254.636 224.026 255.479 224.026 256.347 224.027 C261.319 224.088 265.377 224.789 270.105 226.328 C273.177 226.839 276.249 227.26 279.336 227.668 C282.335 228.383 283.924 229.162 286.105 231.328 C286.496 235.546 285.974 239.216 285.105 243.328 C307.957 245.561 330.873 247.366 353.833 247.899 C354.752 247.927 355.671 247.955 356.617 247.984 C357.416 248.003 358.215 248.022 359.038 248.041 C361.105 248.328 361.105 248.328 364.105 250.328 C366.259 250.707 366.259 250.707 368.754 250.891 C369.671 250.964 370.589 251.038 371.534 251.113 C372.506 251.184 373.479 251.255 374.48 251.328 C396.867 253.166 396.867 253.166 401.152 255.391 C403.551 256.542 405.083 256.463 407.73 256.328 C415.929 256.175 423.986 257.308 432.105 258.328 C433.263 258.472 434.421 258.617 435.613 258.766 C438.62 259.156 441.625 259.564 444.628 259.983 C446.542 260.25 448.457 260.513 450.372 260.774 C454.117 261.287 457.861 261.807 461.605 262.328 C462.823 262.494 464.041 262.66 465.296 262.832 C469.934 263.484 474.39 264.122 478.895 265.422 C482.955 266.568 486.782 266.701 490.98 266.828 C496.482 267.059 501.614 267.428 506.953 268.855 C510.723 269.683 514.561 269.836 518.406 270.082 C521.105 270.328 521.105 270.328 523.336 270.98 C523.92 271.095 524.504 271.21 525.105 271.328 C525.765 270.668 526.425 270.008 527.105 269.328 C524.826 266.785 522.626 265.456 519.543 264.016 C506.447 257.669 506.447 257.669 502.105 253.328 C500.992 253.039 499.878 252.751 498.73 252.453 C494.855 251.251 493.879 250.101 491.105 247.328 C489.971 247.039 488.837 246.751 487.668 246.453 C484.105 245.328 484.105 245.328 481.73 242.203 C479.105 239.328 479.105 239.328 477.113 239.043 C475.583 239.109 474.054 239.2 472.527 239.312 C468.462 239.339 464.808 237.923 461.105 236.328 C460.775 235.998 460.445 235.668 460.105 235.328 C458.077 235.103 456.049 234.88 454.016 234.707 C452.105 234.328 452.105 234.328 450.105 232.328 C447.32 231.949 447.32 231.949 444.043 231.766 C438.203 231.425 438.203 231.425 437.105 230.328 C435.143 230.103 433.179 229.881 431.211 229.707 C429.105 229.328 429.105 229.328 427.262 228.359 C424.363 226.973 421.596 226.689 418.418 226.266 C412.207 225.43 412.207 225.43 411.105 224.328 C407.958 223.881 404.812 223.508 401.652 223.166 C398.1 222.741 396.138 222.35 393.105 220.328 C390.383 220.211 387.759 220.186 385.043 220.266 C377.346 220.448 377.346 220.448 375.105 219.328 C373.097 219.06 371.083 218.84 369.066 218.645 C367.846 218.521 366.625 218.398 365.367 218.271 C362.8 218.02 360.232 217.77 357.664 217.521 C347.115 216.453 347.115 216.453 342.848 215.258 C337.321 213.885 331.848 213.936 326.176 213.85 C321.453 213.703 318.727 213.611 315.105 210.328 C307.755 208.433 299.534 209.32 292.105 210.328 C291.775 210.658 291.445 210.988 291.105 211.328 C288.699 211.429 286.321 211.468 283.914 211.461 C283.177 211.462 282.439 211.463 281.679 211.464 C280.105 211.465 278.53 211.463 276.955 211.458 C274.605 211.453 272.255 211.458 269.904 211.465 C261.135 211.468 252.454 211.152 243.707 210.542 C238.829 210.252 233.988 210.298 229.105 210.391 C222.656 210.457 216.489 210.263 210.105 209.328 C197.414 207.537 184.345 206.843 171.918 210.328 Z M-172.77 214.703 C-173.633 214.773 -174.497 214.842 -175.387 214.914 C-177.915 215.332 -179.683 216.063 -181.895 217.328 C-180.145 223.078 -180.145 223.078 -177.895 225.328 C-174.895 225.328 -174.895 225.328 -172.457 223.078 C-172.034 222.624 -172.034 222.624 -169.895 220.328 C-169.131 219.606 -168.368 218.884 -167.582 218.141 C-165.895 216.328 -165.895 216.328 -165.895 214.328 C-168.206 214.328 -170.466 214.505 -172.77 214.703 Z M10.105 223.328 C8.513 223.712 6.906 224.044 5.293 224.328 C-3.609 226.043 -3.609 226.043 -6.895 227.328 C-6.895 228.648 -6.895 229.968 -6.895 231.328 C-5.919 231.21 -4.943 231.091 -3.938 230.969 C-3.301 230.904 -3.301 230.904 -0.082 230.578 C1.183 230.439 2.447 230.3 3.75 230.156 C7.105 230.328 7.105 230.328 9.023 232.113 C10.669 235.481 10.594 237.601 10.105 241.328 C8.662 244.476 6.961 247.406 5.105 250.328 C9.914 251.898 14.029 253.189 19.105 252.328 C24.698 248.879 30.206 244.842 32.105 238.328 C32.119 236.974 32.096 235.619 32.043 234.266 C32.114 229.764 32.988 228.445 36.105 225.328 C30.915 222.187 27.785 221.146 21.73 221.141 C21.058 221.128 20.385 221.116 19.691 221.104 C15.9 221.092 13.375 221.445 10.105 223.328 Z M-205.207 224.016 C-205.928 224.192 -206.648 224.369 -207.391 224.55 C-211.898 225.698 -216.101 227.138 -220.395 228.953 C-226.11 231.302 -231.489 232.154 -237.604 232.608 C-242.528 233.025 -242.528 233.025 -244.688 234.812 C-245.086 235.313 -245.484 235.813 -245.895 236.328 C-250.505 238.258 -254.967 238.818 -259.895 239.328 C-259.895 239.988 -259.895 240.648 -259.895 241.328 C-258.798 241.377 -257.701 241.426 -256.57 241.477 C-255.116 241.552 -253.661 241.627 -252.207 241.703 C-251.486 241.734 -250.765 241.765 -250.021 241.797 C-249.669 241.816 -249.669 241.816 -247.883 241.914 C-247.239 241.945 -246.595 241.977 -245.931 242.009 C-243.895 242.328 -243.895 242.328 -241.482 243.337 C-238.642 244.425 -236.538 244.586 -233.508 244.594 C-232.486 244.596 -231.465 244.599 -230.412 244.602 C-229.354 244.594 -228.297 244.586 -227.207 244.578 C-226.169 244.586 -225.13 244.594 -224.061 244.602 C-218.248 244.587 -212.917 244.093 -207.25 242.814 C-204.924 242.334 -202.67 242.065 -200.305 241.871 C-199.583 241.81 -198.862 241.749 -198.119 241.686 C-196.651 241.57 -195.183 241.469 -193.713 241.381 C-190.085 241.049 -188.291 240.755 -185.77 238.039 C-184.895 235.328 -184.895 235.328 -185.484 233.012 C-188.417 228.124 -190.774 224.945 -195.895 222.328 C-199.091 222.328 -202.119 223.256 -205.207 224.016 Z M56.105 228.328 C56.293 230.141 56.293 230.141 57.105 232.328 C60.586 234.671 64.263 236.412 68.105 238.078 C69.116 238.527 70.127 238.975 71.168 239.438 C74.368 240.408 75.958 240.348 79.105 239.328 C80.473 238.375 81.808 237.374 83.105 236.328 C84.424 235.632 85.753 234.956 87.105 234.328 C84.14 230.918 81.727 230.47 77.301 230.082 C76.288 230.019 75.274 229.956 74.23 229.891 C67.723 229.409 62.578 226.787 56.105 228.328 Z M-38.27 229.828 C-38.892 229.967 -38.892 229.967 -42.043 230.672 C-42.984 230.888 -43.925 231.105 -44.895 231.328 C-44.565 232.401 -44.235 233.473 -43.895 234.578 C-42.654 239.351 -42.863 243.893 -43.117 248.789 C-43.044 249.627 -42.97 250.465 -42.895 251.328 C-38.514 254.248 -34.487 253.735 -29.332 253.766 C-28.361 253.798 -27.389 253.831 -26.389 253.865 C-23.798 253.885 -21.435 253.838 -18.895 253.328 C-17.141 251.199 -17.141 251.199 -16.895 248.328 C-18.097 241.444 -20.527 233.852 -24.895 228.328 C-29.541 227.873 -33.746 228.804 -38.27 229.828 Z M-81.473 246.512 C-83.157 249.269 -83.895 251.067 -83.895 254.328 C-80.436 254.386 -76.978 254.422 -73.52 254.453 C-72.535 254.47 -71.55 254.487 -70.535 254.504 C-69.594 254.51 -68.653 254.517 -67.684 254.523 C-66.814 254.534 -65.945 254.544 -65.049 254.555 C-62.895 254.328 -62.895 254.328 -60.895 252.328 C-60.313 250.682 -59.799 249.011 -59.332 247.328 C-57.974 242.487 -57.974 242.487 -56.895 240.328 C-56.77 237.266 -56.77 237.266 -56.895 234.328 C-58.575 232.648 -60.457 232.801 -62.77 232.578 C-71.563 232.613 -76.695 239.901 -81.473 246.512 Z M119.105 234.328 C117.543 237.391 117.543 237.391 117.105 240.328 C118.105 241.328 118.105 241.328 121.48 241.453 C125.105 241.328 125.105 241.328 128.105 240.328 C129.73 240.115 131.36 239.941 132.992 239.793 C133.93 239.706 134.868 239.619 135.834 239.529 C136.81 239.442 137.787 239.355 138.793 239.266 C139.781 239.175 140.769 239.084 141.787 238.99 C144.226 238.766 146.666 238.546 149.105 238.328 C149.105 237.668 149.105 237.008 149.105 236.328 C148.749 236.309 148.749 236.309 146.945 236.215 C140.938 235.803 136.528 234.873 131.105 232.328 C126.847 232.328 123 232.488 119.105 234.328 Z M173.105 232.328 C172.775 232.493 172.775 232.493 171.105 233.328 C171.105 233.988 171.105 234.648 171.105 235.328 C172.095 234.998 173.085 234.668 174.105 234.328 C173.775 233.668 173.445 233.008 173.105 232.328 Z M-103.895 239.328 C-103.935 241.328 -103.937 243.329 -103.895 245.328 C-100.895 245.328 -100.895 245.328 -98.207 242.953 C-95.895 240.328 -95.895 240.328 -95.895 238.328 C-102.77 238.203 -102.77 238.203 -103.895 239.328 Z M-280.895 244.328 C-282.351 244.75 -283.81 245.166 -285.27 245.578 C-289.168 246.723 -292.921 248.096 -296.699 249.58 C-303.176 252.117 -309.15 253.919 -316.086 254.832 C-320.048 255.532 -323.609 256.985 -327.344 258.449 C-329.773 259.286 -331.909 259.701 -334.457 259.953 C-337.895 260.328 -337.895 260.328 -339.895 262.328 C-341.918 262.672 -341.918 262.672 -344.27 262.828 C-347.693 263.057 -349.856 263.785 -352.895 265.328 C-354.965 265.672 -354.965 265.672 -357.02 265.828 C-360.895 266.328 -360.895 266.328 -362.895 268.328 C-364.82 268.785 -364.82 268.785 -367.207 269.141 C-374.528 270.471 -381.368 273.309 -388.145 276.332 C-392.363 277.86 -396.712 278.771 -401.082 279.766 C-420.041 284.092 -420.041 284.092 -424.895 287.328 C-428.493 288.184 -432.109 288.857 -435.742 289.547 C-438.895 290.328 -438.895 290.328 -440.895 292.328 C-440.895 293.318 -440.895 294.308 -440.895 295.328 C-429.447 302.414 -414.788 301.255 -401.895 301.328 C-400.466 301.341 -399.037 301.355 -397.608 301.37 C-381.2 301.524 -364.796 301.437 -348.395 300.953 C-347.796 300.938 -347.796 300.938 -344.765 300.86 C-343.663 300.821 -342.561 300.782 -341.426 300.742 C-340.473 300.711 -339.519 300.679 -338.537 300.647 C-335.698 300.304 -333.515 299.444 -330.895 298.328 C-328.86 298.091 -326.816 297.929 -324.77 297.828 C-320.742 297.627 -316.907 297.167 -312.957 296.391 C-305.013 294.888 -296.96 294.328 -288.912 293.651 C-286.867 293.477 -284.822 293.294 -282.777 293.109 C-281.575 293.007 -280.372 292.904 -279.133 292.799 C-276.062 292.353 -273.723 291.556 -270.895 290.328 C-268.695 289.961 -266.484 289.653 -264.27 289.391 C-258.911 288.68 -253.861 287.662 -248.688 286.109 C-246.338 285.452 -244.017 284.916 -241.633 284.41 C-236.953 283.386 -232.436 282.034 -227.895 280.516 C-227.109 280.254 -226.324 279.993 -225.515 279.724 C-220.568 278.028 -216.036 276.086 -211.566 273.34 C-209.895 272.328 -209.895 272.328 -207.332 271.391 C-203.469 269.707 -199.915 267.274 -196.895 264.328 C-196.895 263.338 -196.895 262.348 -196.895 261.328 C-199.338 260.106 -201.039 260.155 -203.77 260.082 C-204.756 260.049 -205.742 260.016 -206.758 259.982 C-208.818 259.922 -210.878 259.865 -212.938 259.811 C-220.373 259.556 -227.268 258.439 -234.488 256.705 C-237.293 256.266 -239.098 256.994 -241.758 257.836 C-246.438 258.914 -251.135 258.658 -255.895 258.328 C-256.945 258.256 -257.996 258.184 -259.078 258.109 C-262.258 257.613 -264.288 257.234 -266.895 255.328 C-268.176 250.953 -268.172 246.855 -267.895 242.328 C-272.787 242.132 -276.326 242.626 -280.895 244.328 Z M45.105 243.328 C45.435 244.648 45.765 245.968 46.105 247.328 C47.425 246.998 48.745 246.668 50.105 246.328 C48.73 244.828 48.73 244.828 47.105 243.328 C46.445 243.328 45.785 243.328 45.105 243.328 Z M-164.895 265.328 C-167.161 265.599 -169.427 265.773 -171.703 265.949 C-173.895 266.328 -173.895 266.328 -176.895 268.328 C-177.823 268.576 -178.751 268.823 -179.707 269.078 C-183.291 270.483 -184.885 272.121 -187.461 274.871 C-190.329 277.786 -193.355 279.155 -197.207 280.391 C-197.65 280.545 -197.65 280.545 -199.895 281.328 C-199.895 281.988 -199.895 282.648 -199.895 283.328 C-197.501 283.093 -195.108 282.855 -192.715 282.613 C-190.898 282.43 -189.08 282.25 -187.262 282.074 C-181.007 281.441 -181.007 281.441 -179.895 280.328 C-177.753 280.09 -175.611 279.856 -173.467 279.639 C-171.038 279.345 -168.694 278.924 -166.301 278.422 C-160.661 277.268 -155.003 276.254 -149.332 275.266 C-148.356 275.092 -147.379 274.919 -146.373 274.74 C-141.916 273.962 -137.498 273.258 -132.992 272.832 C-129.632 272.493 -127.013 271.658 -123.895 270.328 C-121.633 269.899 -119.361 269.525 -117.082 269.203 C-116.501 269.119 -116.501 269.119 -113.562 268.695 C-112.682 268.574 -111.802 268.453 -110.895 268.328 C-110.895 267.668 -110.895 267.008 -110.895 266.328 C-111.46 266.316 -111.46 266.316 -114.319 266.252 C-118.516 266.158 -122.713 266.058 -126.91 265.956 C-128.726 265.913 -130.542 265.871 -132.357 265.831 C-134.969 265.773 -137.58 265.709 -140.191 265.645 C-141.002 265.628 -141.813 265.611 -142.648 265.594 C-146.223 265.5 -149.445 265.223 -152.895 264.328 C-154.601 264.238 -156.311 264.198 -158.02 264.203 C-158.888 264.201 -159.757 264.198 -160.652 264.195 C-162.895 264.328 -162.895 264.328 -164.895 265.328 Z M-82.895 278.328 C-86.036 283.25 -86.036 283.25 -85.582 286.703 C-85.355 287.239 -85.128 287.776 -84.895 288.328 C-81.948 286.95 -79.424 285.353 -76.832 283.391 C-76.16 282.887 -75.489 282.383 -74.797 281.863 C-73.023 280.432 -71.396 279.044 -69.895 277.328 C-69.895 276.668 -69.895 276.008 -69.895 275.328 C-78.863 274.872 -78.863 274.872 -82.895 278.328 Z M-459.895 298.328 C-459.895 298.988 -459.895 299.648 -459.895 300.328 C-458.905 300.328 -457.915 300.328 -456.895 300.328 C-456.895 299.668 -456.895 299.008 -456.895 298.328 C-457.885 298.328 -458.875 298.328 -459.895 298.328 Z " fill="#E5E7EB" transform="translate(622.89453125,32.671875)"/>
<path d="M0 0 C0.54 0.024 0.54 0.024 3.273 0.145 C15.324 0.737 15.324 0.737 20 4 C20.5 7.625 20.5 7.625 20 11 C18.315 12.685 16.146 12.297 13.883 12.495 C4.921 13.329 4.921 13.329 1.988 15.465 C1.763 15.739 1.763 15.739 0.625 17.125 C-2 20 -2 20 -4.273 20.461 C-6.615 20.498 -8.707 20.477 -11 20 C-11.66 19.34 -12.32 18.68 -13 18 C-13.825 17.67 -14.65 17.34 -15.5 17 C-18 16 -18 16 -20 14 C-20.75 10.812 -20.75 10.812 -20 7 C-14.063 0.644 -8.351 -0.927 0 0 Z " fill="#E5E7EB" transform="translate(693,133)"/>
</svg>
