<svg xmlns="http://www.w3.org/2000/svg" viewBox="0 0 512 512" width="512" height="512">
  <rect width="512" height="512" fill="#FFFFFF"/>
  <g transform="translate(88.670,329.214) scale(0.379347,-0.379347)">
    <path d="M559 0Q557 0 557.0 6.0Q557 12 559 12Q596 12 608.0 25.5Q620 39 620 81V235Q620 349 537 349Q503 349 469.0 328.0Q435 307 411 272L407 284Q447 340 489.0 368.5Q531 397 578 397Q630 397 658.5 367.0Q687 337 687 274V81Q687 39 698.5 25.5Q710 12 747 12Q751 12 751.0 6.0Q751 0 747 0Q729 0 704.5 1.0Q680 2 653 2Q627 2 602.5 1.0Q578 0 559 0ZM300 0Q297 0 297.0 6.0Q297 12 300 12Q336 12 348.0 25.5Q360 39 360 81V235Q360 349 278 349Q243 349 209.5 328.0Q176 307 152 272L148 284Q188 340 230.0 368.5Q272 397 318 397Q370 397 399.0 367.5Q428 338 428 279V81Q428 39 439.5 25.5Q451 12 488 12Q491 12 491.0 6.0Q491 0 488 0Q469 0 445.0 1.0Q421 2 394 2Q367 2 342.5 1.0Q318 0 300 0ZM43 0Q40 0 40.0 6.0Q40 12 43 12Q79 12 90.5 25.5Q102 39 102 81V276Q102 308 94.5 323.0Q87 338 69 338Q59 338 46.0 334.5Q33 331 16 324Q12 322 10.0 327.5Q8 333 11 335L134 394Q138 395 140 395Q149 395 160.0 373.0Q171 351 171 310V81Q171 39 182.5 25.5Q194 12 231 12Q234 12 234.0 6.0Q234 0 231 0Q212 0 188.0 1.0Q164 2 137 2Q110 2 85.5 1.0Q61 0 43 0Z" fill="#0F0F0F"/>
    <g transform="translate(724.000,0)">
      <path d="M101 -11Q79 -11 65.5 2.0Q52 15 52 38Q52 59 65.5 71.5Q79 84 101 84Q125 84 137.0 71.5Q149 59 149 38Q149 15 137.0 2.0Q125 -11 101 -11Z" fill="#7C3AED"/>
    </g>
  </g>
</svg>
